<?xml version="1.0" encoding="utf-8"?>
<!-- Generator: Adobe Illustrator 16.0.0, SVG Export Plug-In . SVG Version: 6.00 Build 0)  -->
<!DOCTYPE svg PUBLIC "-//W3C//DTD SVG 1.1//EN" "http://www.w3.org/Graphics/SVG/1.1/DTD/svg11.dtd">
<svg version="1.1" id="Layer_1" xmlns="http://www.w3.org/2000/svg" xmlns:xlink="http://www.w3.org/1999/xlink" x="0px" y="0px"
	 width="130px" height="84px" viewBox="0 0 180 134" enable-background="new 0 0 180 134" xml:space="preserve">
<path fill-rule="evenodd" clip-rule="evenodd" d="M134.803,51.38h40.259l-2.617,15.878l-10.628,7.518l-6.657,40.36l-32.918,15.439
	l-4.642,0.053l-43.364,0.006H48.723c-5.94-0.41-23.752-0.832-23.752-1.834s2.139-2.264,10.629-2.264s7.576,0.09,10.819,0.248
	l2.68-11.648l6.894-41.78l-8.48-6.099l2.619-15.878h39.9l4.222-25.238l17.143,46.612l3.526-21.374H134.803L134.803,51.38z"/>
<path fill="#FF0000" d="M85.747,64.872h-9.386l-7.898,47.878H51.911l7.899-47.878h-9.486l1.831-11.106h35.424L85.747,64.872
	L85.747,64.872z M113.229,112.75l-10.549-28.793l-4.749,28.793H82.187l12.935-77.335l17.156,46.65l4.669-28.299h15.54l-12.57,76.242
	L113.229,112.75L113.229,112.75z M170.419,64.872h-9.386l-7.898,47.878h-16.551l7.898-47.878h-9.486l1.831-11.106h35.423
	L170.419,64.872L170.419,64.872z"/>
<path fill-rule="evenodd" clip-rule="evenodd" d="M46.876,92.67l-0.825-3.434l1.287-0.609l-0.248-1.669
	c-2.68-18.112,5.136-34.005,12.97-49.666c0.097-0.193,0.138-0.318,0.187-0.527c0.372-1.557-0.66-2.759-1.848-3.594
	c-1.134-0.797-2.45-1.415-3.717-1.97c-2.942-1.289-6.012-2.328-9.101-3.214c0.837-2.746,2.081-6.03,3.898-8.167
	c0.53-0.623,1.205-1.251,1.977-1.55c0.617-0.239,1.254-0.233,1.893-0.092c1.65,0.365,3.358,1.601,4.626,2.682
	c1.474,1.256,3.727,1.081,4.985-0.392c1.259-1.473,1.082-3.731-0.392-4.988c-2.213-1.887-4.826-3.577-7.697-4.212
	c-2.018-0.447-4.036-0.341-5.969,0.406c-1.903,0.736-3.493,2.012-4.808,3.556c-2.578,3.03-4.24,7.225-5.385,11.045
	c-2.991-0.632-6.033-1.126-9.082-1.353c-1.471-0.11-3.013-0.167-4.478,0.029c-1.474,0.196-3.04,0.734-3.591,2.264
	c-0.033,0.094-0.063,0.177-0.083,0.274c-2.646,10.267-5.747,21.112-7.011,31.643l-0.048,0.411
	c-9.863,3.767-10.564,10.34-5.945,17.93c-0.464,1.019-0.721,2.15-0.721,3.341c0,3.098,1.741,5.789,4.298,7.146
	c-0.388-0.018-0.803-0.001-1.273,0.202c-1.374,0.597-1.603,1.399-1.233,2.249c0.338,0.778,1.372,1.391,2.179,1.819
	c-0.538,0.108-1.213,0.142-1.629,0.163c-0.167,0.007-0.299,0.014-0.397,0.024l-0.141,0.015l-0.123,0.052
	c-1.716,0.729-2.017,1.616-1.642,2.498c0.365,0.858,1.53,1.407,2.312,1.776c0.065,0.031,0.124,0.057,0.174,0.079
	c-0.243,0.05-0.547,0.105-0.856,0.16c-1.141,0.204-2.348,0.422-2.894,1.185v0.003C5.943,99,6.147,99.611,6.802,100.081l0,0.001
	c0.579,0.415,1.616,0.528,2.44,0.617c0.346,0.038,0.544,0.013,0.589,0.041c0.078,0.048,0.097,0.072,0.089,0.085
	c-0.208,0.34-0.74,0.766-1.228,1.156c-0.598,0.478-1.148,0.919-1.377,1.421c-0.2,0.437-0.254,0.873-0.191,1.267
	c0.064,0.4,0.246,0.752,0.522,1.023v0.004c0.271,0.266,0.629,0.447,1.046,0.51c0.424,0.066,0.913,0.003,1.427-0.229
	c0.387-0.175,0.946-0.578,1.466-1.002c0.262-0.215,0.524-0.445,0.755-0.66c0.117,1.398,0.345,3.095,1.642,3.65
	c1.015,0.435,1.655-0.087,2.064-1.041c0.346-0.809,0.477-2.007,0.567-2.833c0.035-0.321-0.034-0.397,0.014-0.48
	c0.061-0.104,0.091-0.15,0.098-0.151c0.008-0.003,0.017,0.018,0.062,0.042c0.141,0.071,0.292,0.202,0.435,0.351l0.001-0.001
	l0.188,0.194c1.773,7.984,4.107,15.85,6.792,23.57c0.872,2.506,4.897,2.689,7.182,2.869c3.915,0.309,8.081,0.07,11.813-1.111
	c3.851-1.221,7.711-3.129,10.972-5.52c1.867-1.369,5.658-4.242,4.177-6.943c-1.498-2.734-3.256-5.313-4.866-7.979
	c-2.029-3.361-5.448-9.199-3.694-13.187l1.723-3.914l-4.208,0.754C47.157,92.61,47.016,92.639,46.876,92.67L46.876,92.67z
	 M14.128,62.476c-0.289,3.506-0.38,7.005-0.347,10.52c-1.393,0.364-2.638,1.092-3.631,2.074
	C7.456,70.624,6.587,65.395,14.128,62.476L14.128,62.476z M11.718,77.341c-0.318-0.414-0.629-0.842-0.928-1.279l0.04-0.033h0
	l0.097-0.078h0l0.099-0.076v0l0.101-0.072h0l0.103-0.07l0.103-0.067h0l0.105-0.063V75.6l0.106-0.06h0.001l0.108-0.058v-0.001
	l0.109-0.054h0l0.111-0.051v0l0.112-0.048l0.114-0.046l0.114-0.042l0.116-0.038l0.117-0.035l0.119-0.031l0.119-0.028l0.121-0.024
	l0.121-0.021l0.122-0.017l0.124-0.014l0.124-0.009l0.125-0.005l0.125-0.002l0.113,0.002h0.012l0.1,0.004l0.025,0.001l0.086,0.007
	l0.004,0l0.09,0.008l0.018,0.002l0.049,0.005l0.022,0.003l0.076,0.01l0.023,0.003l0.048,0.008l0.022,0.004l0.081,0.015l0.005,0.001
	l0.083,0.016l0.024,0.006l0.095,0.022l0.012,0.003l0.106,0.028l0,0L14.75,75.2l0.012,0.003l0.093,0.03l0.022,0.007l0.082,0.029
	l0.033,0.012l0.068,0.027l0.045,0.019l0.056,0.023l0.056,0.025l0.044,0.021l0.013,0.005l0.075,0.036l0.012,0.005l0.076,0.039
	l0.022,0.011l0.086,0.047l0.011,0.006l0.097,0.055h0l0.094,0.058l0.011,0.006l0.083,0.054l0.02,0.013l0.072,0.05l0.072,0.051
	l0.02,0.014l0.04,0.029l0.05,0.039l0.007,0.005l0.079,0.061l0.009,0.008l0.082,0.067l0.066,0.056l0.02,0.018l0.074,0.066l0.01,0.01
	l0.083,0.077l0,0.001l0.082,0.081l0.008,0.007l0.072,0.075l0.017,0.018l0.062,0.066l0.025,0.028l0.052,0.059l0.009,0.009
	l0.062,0.072l0.012,0.013c0.048,0.057,0.095,0.117,0.141,0.177l0.056,0.072l0.016,0.022l0.061,0.084l0.009,0.012l0.067,0.098
	l0,0.001l0.065,0.1l0.064,0.101l0.013,0.021l0.049,0.081l0.111,0.196l0.009,0.016l0.031,0.059l0.026,0.049l0.001,0.002
	c0.074,0.145,0.143,0.293,0.207,0.445l0,0.001l0.047,0.116c0.108,0.271,0.2,0.555,0.272,0.848l0.028,0.11l0.003,0.016l0.028,0.125
	v0.002c0.099,0.473,0.153,0.968,0.153,1.479c0,3.274-2.176,5.929-4.861,5.929c-2.455,0-4.475-2.211-4.811-5.086l-0.001-0.013
	l-0.001-0.012l-0.001-0.014L8.73,81.736l-0.001-0.013L8.725,81.7v-0.003l-0.001-0.013l-0.001-0.013l-0.002-0.013L8.72,81.645
	l-0.001-0.013l-0.001-0.013l-0.001-0.013l-0.002-0.014L8.71,81.527l-0.001-0.013l-0.001-0.014l-0.001-0.013l-0.001-0.013
	l-0.001-0.013l-0.001-0.014l0-0.013l-0.001-0.013l0-0.013L8.7,81.401v-0.005l0-0.013l0-0.014l-0.001-0.013l0-0.013l0-0.013l0-0.014
	l-0.002-0.013l0-0.013l0-0.013l0-0.014l0-0.013l0-0.001v-0.012l0-0.013l0-0.014v-0.013l0-0.014l0-0.013l-0.001-0.014v-0.013l0-0.014
	v-0.013l0-0.013l0-0.027v-0.013l0-0.013v-0.014v-0.013v-0.014l0-0.013v-0.013v-0.013v-0.014v-0.013h0h0l0.001-0.153l0,0l0.004-0.152
	h0L8.7,80.489h0.001l0.01-0.15l0.001,0l0.013-0.148h0l0.017-0.148h0.001l0.019-0.146h0l0.022-0.145h0l0.025-0.145h0l0.029-0.143l0,0
	l0.031-0.142l0,0l0.033-0.139h0l0.036-0.139h0l0.039-0.137h0.001l0.042-0.136l0,0l0.044-0.133h0l0.046-0.132h0l0.004-0.01
	c0.34,0.515,0.704,1.033,1.091,1.556c-0.022,0.188-0.034,0.382-0.034,0.579c0,1.993,1.173,3.609,2.622,3.609
	c1.447,0,2.622-1.616,2.622-3.609s-1.174-3.608-2.622-3.608C12.414,77.021,12.047,77.135,11.718,77.341L11.718,77.341z
	 M14.379,88.771c0.133,0.024,0.268,0.045,0.402,0.063c0.521,4.312,1.239,8.596,2.122,12.848c-0.217-0.027-0.439-0.013-0.663,0.051
	c-0.444,0.125-0.846,0.429-1.165,0.979c-0.143,0.246-0.186,0.65-0.245,1.189c-0.071,0.65-0.171,1.565-0.371,2.153
	c-0.22-0.471-0.298-1.443-0.359-2.213c-0.074-0.95-0.136-1.715-0.688-2.068c-0.607-0.389-1.201-0.207-1.847,0.803
	c-0.066,0.104-0.564,0.555-1.119,1.008c-0.421,0.344-0.84,0.656-1.066,0.757c-0.176,0.08-0.318,0.105-0.423,0.089
	c-0.028-0.004-0.048-0.011-0.057-0.02l-0.001,0.002c-0.004-0.004-0.007-0.014-0.008-0.024c-0.01-0.061,0.005-0.143,0.05-0.243
	c0.051-0.111,0.444-0.427,0.872-0.77c0.608-0.487,1.268-1.016,1.635-1.612c0.561-0.912,0.553-1.798-0.679-2.555
	c-0.292-0.179-0.769-0.231-1.34-0.294l-0.34-0.037c0.208-0.041,0.427-0.08,0.644-0.119c0.985-0.176,1.921-0.345,2.4-0.879
	c0.575-0.639,0.552-1.374-0.466-2.288c-0.176-0.158-0.453-0.289-0.802-0.454c-0.534-0.252-1.33-0.626-1.427-0.856
	c-0.027-0.064,0.161,0.029,0.535-0.089l0.202-0.011c0.692-0.034,1.978-0.098,2.816-0.48c0.895-0.406,1.372-1.058,0.896-2.101
	c-0.156-0.343-0.519-0.531-1.012-0.787c-0.606-0.314-1.558-0.809-1.691-1.117c-0.052-0.121,0.146,0.179,0.307,0.109
	c0.174-0.076,0.448-0.057,0.705-0.04C13.072,89.826,13.855,89.879,14.379,88.771L14.379,88.771z M10.758,96.709
	c0.021-0.009,0.036-0.018,0.043-0.027C10.873,96.604,10.832,96.642,10.758,96.709L10.758,96.709z M67.805,28.311l-5.245-5.965
	l3.526,7.08L67.805,28.311L67.805,28.311z M59.628,6.514l1.16,6.204l0.467-6.268L59.628,6.514L59.628,6.514z M72.12,14.035
	l-6.889,2.849l7.359-0.984L72.12,14.035L72.12,14.035z M56.906,27.636L58,22.4l-2.389,4.762L56.906,27.636L56.906,27.636z M68.972,6
	l-5.09,8.25l7.005-6.643L68.972,6L68.972,6z M74.424,21.603l-9.544-1.702l8.753,4.074L74.424,21.603L74.424,21.603z"/>
<path fill-rule="evenodd" clip-rule="evenodd" fill="#FF0000" d="M23.685,28.05c-4.147,14.199-7.468,29.226-7.586,44.688
	c4.343,0.137,7.822,3.701,7.822,8.078c0,4.032-2.95,7.374-6.808,7.986c1.703,13.186,5.323,25.915,9.24,38.065
	c0.292,0.783,2.249,1.535,5.184,1.766c2.919,0.229,6.811-0.113,10.971-1.432c4.16-1.318,7.82-3.357,10.313-5.184
	c2.524-1.852,3.875-3.408,3.525-4.014c-3.673-7.053-11.702-16.233-8.646-23.177c-7.988,1.867-18.41,20.081-24.539-7.299
	c4.304,1.962,16.148,2.384,21.675-0.236c-0.489-3.3-0.673-6.654-0.459-10.057c0.93-14.764,7.785-28.238,13.628-40.926
	c0.31-0.637-1.333-1.749-4.237-3.02c-2.377-1.04-5.586-2.194-9.259-3.235l-0.427,1.795c3.586,1.027,6.721,2.156,9.054,3.176
	c1.515,0.664,2.686,1.283,3.417,1.814c-1.02,0.101-2.518,0.053-4.357-0.123c-3.288-0.313-7.694-1.003-12.421-2.048
	c-4.719-1.045-8.885-2.295-11.79-3.501c-1.786-0.741-3.099-1.473-3.783-2.11c1.003-0.233,2.606-0.275,4.625-0.125
	c2.545,0.189,5.759,0.659,9.279,1.417l0.424-1.78c-3.438-0.732-6.578-1.188-9.072-1.373c-3.29-0.246-5.478,0.021-5.758,0.794
	C23.695,28.01,23.689,28.03,23.685,28.05L23.685,28.05z"/>
<path fill-rule="evenodd" clip-rule="evenodd" fill="#FF6666" d="M48.464,124.709c1.674-0.875,3.152-1.809,4.357-2.691
	c2.524-1.852,3.875-3.408,3.525-4.014c-3.673-7.053-11.702-16.233-8.646-23.177c-3.437,0.803-7.323,4.63-11.125,6.552
	C38.741,110.436,42.623,118.674,48.464,124.709L48.464,124.709z M48.094,105.023c-1-1.909-1.791-3.894-1.694-6.214
	c-3.16,0.03-5.384,2.311-7.807,4.109C44.173,99.693,45.134,100.544,48.094,105.023L48.094,105.023z M34.699,89.121
	c3.817-0.076,7.629-0.64,10.138-1.829c-0.371-2.503-0.566-5.038-0.546-7.602c-1.276,1.75-3.054,3.094-5.375,3.8
	c-1.437,0.438-2.949,0.577-4.444,0.46C34.496,85.675,34.57,87.401,34.699,89.121L34.699,89.121z M45.217,70.429
	c1.957-10.788,6.642-20.893,11.124-30.528c-1.985,0.578-8.727,0.282-11.681-0.671c-3.206,6.822-7.17,17.407-9.15,29.982
	L45.217,70.429L45.217,70.429z"/>
<path fill="#FFFFFF" d="M39.249,32.886c1.483-7.666,3.813-13.569,6.867-16.684c1.178-1.385,2.357-1.928,3.776-2.477
	c1.458-0.564,3.008-0.672,4.654-0.307c2.088,0.462,4.135,1.518,6.522,3.55c0.528,0.452,0.591,1.246,0.139,1.775
	c-0.451,0.529-1.246,0.591-1.775,0.14c-2.061-1.754-3.741-2.629-5.423-3.002c-1.157-0.256-2.225-0.188-3.207,0.191
	c-1.021,0.395-1.866,0.7-2.773,1.766c-2.328,2.736-4.462,8.9-5.938,15.551C41.405,33.857,39.386,33.456,39.249,32.886L39.249,32.886
	z"/>
<path fill-rule="evenodd" clip-rule="evenodd" fill="#DB0000" d="M28.472,35.004c-5.642,6.591-9.126,20.062-9.958,34.875
	l5.436,0.676l0.003-0.012l13.61,1.706l0.005,0.001l7.265,0.911c-0.132,0.94-0.243,1.886-0.331,2.836
	c-0.912,6.937-15.6,10.16-20.742,3.201c-0.245-1.205-0.757-2.313-1.473-3.258c-0.204-0.88-0.308-1.847-0.289-2.913l-3.606-0.428
	l-0.018,0.539c-0.716-0.237-1.477-0.375-2.265-0.401l0.005-0.408l-0.012-0.001c0.013-0.503,0.059-2.239,0.077-2.741l0.01,0.001
	c0.508-12.862,3.194-25.937,6.401-37.699C24.001,33.34,25.215,34.026,28.472,35.004L28.472,35.004z M18.853,88.321
	c1.673,17.696,7.326,34.119,17.78,40.166c-1.888,0.23-3.616,0.262-5.094,0.146c-2.936-0.23-4.892-0.982-5.185-1.766
	c-3.917-12.15-7.538-24.879-9.24-38.065C17.719,88.706,18.3,88.542,18.853,88.321L18.853,88.321z"/>
<path fill-rule="evenodd" clip-rule="evenodd" fill="#FFFFFF" d="M44.786,94.945c-5.494,2.508-11.276,10.114-16.1,2.412
	c-0.426-0.722-0.889-1.499-1.353-2.359c2.094,1.094,5.366,0.617,9.591-1.384c-4.907,1.409-8.47,1.415-10.202,0.194
	c-0.62-1.272-1.211-2.72-1.689-4.417c3.607,1.609,12.887,1.247,18.172-0.606L44.786,94.945L44.786,94.945z"/>
<path fill-rule="evenodd" clip-rule="evenodd" d="M38.646,71.134l-0.005-0.001l-13.609-1.706l-0.004,0.011l-13.388-1.667
	L11.48,69.47l13.219,1.178c-2.567,12.127,18.26,17.842,20.426,2.765c3.323,11.33,6.075,8.162,8.615-0.386L38.646,71.134
	L38.646,71.134z"/>
<path fill-rule="evenodd" clip-rule="evenodd" fill="#808080" d="M38.428,72.636l-12.272-1.538c-0.34,1.741-0.128,3.445,0.676,4.976
	c3.297-0.529,7.08-0.831,11.103-0.831c1.777,0,3.507,0.06,5.169,0.171c0.229-0.678,0.395-1.393,0.506-2.128L38.428,72.636
	L38.428,72.636z M46.797,73.686c0.183,0.573,0.447,1.363,0.75,2.169c1.194,0.16,2.333,0.35,3.408,0.564
	c0.289-0.712,0.558-1.461,0.781-2.115L46.797,73.686L46.797,73.686z"/>
<path fill-rule="evenodd" clip-rule="evenodd" fill="#FF6600" d="M13.546,75.017c-1.023,0-1.973,0.386-2.757,1.045
	c0.299,0.438,0.61,0.866,0.928,1.279c0.329-0.206,0.696-0.32,1.081-0.32c1.447,0,2.622,1.615,2.622,3.608s-1.174,3.609-2.622,3.609
	c-1.449,0-2.622-1.616-2.622-3.609c0-0.197,0.011-0.391,0.034-0.579c-0.387-0.523-0.75-1.042-1.091-1.557
	c-0.279,0.747-0.433,1.577-0.433,2.451c0,3.274,2.176,5.929,4.86,5.929c2.685,0,4.861-2.655,4.861-5.929
	S16.231,75.017,13.546,75.017L13.546,75.017z"/>
<path fill-rule="evenodd" clip-rule="evenodd" fill="#FFCC00" d="M13.546,75.017c-1.023,0-1.973,0.386-2.757,1.046
	c0.298,0.438,0.61,0.865,0.928,1.279c0.329-0.206,0.696-0.32,1.081-0.32c1.361,0,2.479,1.427,2.609,3.253
	c1.023-0.146,2.006-0.242,2.935-0.289C17.968,77.167,15.963,75.017,13.546,75.017L13.546,75.017z M9.12,78.495
	c-0.278,0.746-0.433,1.576-0.433,2.45c0,0.286,0.016,0.567,0.048,0.842c0.244-0.075,0.489-0.148,0.736-0.22
	c0.254-0.074,0.506-0.145,0.759-0.214c-0.034-0.234-0.053-0.476-0.053-0.724c0-0.197,0.011-0.391,0.034-0.579
	C9.824,79.528,9.461,79.009,9.12,78.495L9.12,78.495z"/>
<path fill-rule="evenodd" clip-rule="evenodd" fill="#FF6666" d="M75.112,63.399l-4.167,25.252l-0.59,0.14
	c-4.091,0.975-8.162,2.039-12.205,3.202l-1.388,0.398l4.783-28.993h-9.486l1.346-8.161h32.438l-1.345,8.161H75.112L75.112,63.399z
	 M113.838,81.657l4.358-26.418h12.556l-4.2,25.478l-0.73,0.04c-3.606,0.202-7.211,0.469-10.809,0.794L113.838,81.657L113.838,81.657
	z M102.139,78.196l-0.806,4.888l-0.669,0.09c-3.705,0.502-7.403,1.064-11.089,1.695l-1.267,0.216l7.35-43.947l15.016,40.832
	l-1.163,0.125c-1.662,0.179-3.322,0.37-4.98,0.574l-0.72,0.088L102.139,78.196L102.139,78.196z M146.218,63.399h-9.487l1.347-8.161
	h32.438l-1.347,8.161h-9.385l-2.855,17.307l-0.816-0.042c-3.868-0.208-7.741-0.324-11.615-0.356l-1.067-0.009L146.218,63.399
	L146.218,63.399z"/>
<path fill="#FFFFFF" d="M63.492,119.08l-0.594,2.709h0.056c0.547,0,0.993-0.119,1.341-0.357c0.345-0.238,0.567-0.574,0.662-1.006
	c0.095-0.432,0.02-0.764-0.223-0.998c-0.244-0.232-0.64-0.348-1.187-0.348H63.492L63.492,119.08z M57.683,127.529l2.522-11.514
	h4.956c1.529,0,2.64,0.287,3.324,0.859c0.688,0.572,0.912,1.398,0.675,2.48c-0.146,0.664-0.437,1.246-0.874,1.744
	c-0.435,0.494-0.999,0.885-1.687,1.17l1.273,4.783l-4.259,0.477l-0.9-4.887l-1.01,4.607L57.683,127.529L57.683,127.529z
	 M74.125,122.594h1.885l-0.179-3.309L74.125,122.594L74.125,122.594z M67.546,127.205l6.681-11.189h4.766l1.703,11.189l-4.376,0.291
	l-0.205-1.98h-3.32l-1.1,1.98L67.546,127.205L67.546,127.205z M87.124,119.303l-1.022,4.67h0.142c0.873,0,1.599-0.205,2.171-0.615
	c0.572-0.406,0.94-0.982,1.102-1.721c0.162-0.742,0.044-1.318-0.354-1.725c-0.396-0.408-1.043-0.609-1.934-0.609H87.124
	L87.124,119.303z M81.388,127.266l2.464-11.25h4.753c0.607,0,1.188,0.07,1.743,0.213c0.552,0.143,1.037,0.346,1.45,0.611
	c0.775,0.5,1.318,1.17,1.626,2.01c0.311,0.838,0.354,1.768,0.131,2.787c-0.225,1.025-0.676,1.957-1.353,2.795
	c-0.678,0.84-1.513,1.512-2.508,2.01c-0.529,0.266-1.103,0.469-1.717,0.611c-0.619,0.143-1.229,0.213-1.836,0.213H81.388
	L81.388,127.266z M93.583,127.48l2.477-11.309l4.037-0.246l-2.464,11.246L93.583,127.48L93.583,127.48z M106.188,124.221
	c0.795,0,1.477-0.232,2.048-0.697c0.567-0.465,0.938-1.096,1.111-1.887c0.172-0.787,0.077-1.414-0.287-1.879
	c-0.366-0.465-0.947-0.697-1.742-0.697c-0.785,0-1.463,0.232-2.025,0.695c-0.564,0.461-0.934,1.09-1.107,1.881
	c-0.175,0.797-0.08,1.428,0.281,1.889C104.828,123.988,105.403,124.221,106.188,124.221L106.188,124.221z M108.047,115.736
	c0.913,0,1.74,0.139,2.476,0.41c0.738,0.277,1.354,0.674,1.854,1.199c0.521,0.531,0.865,1.164,1.033,1.891
	c0.17,0.73,0.157,1.529-0.033,2.4c-0.192,0.875-0.53,1.676-1.012,2.395c-0.484,0.723-1.107,1.357-1.87,1.906
	c-0.734,0.523-1.531,0.92-2.39,1.197c-0.861,0.271-1.743,0.41-2.645,0.41c-0.896,0-1.714-0.139-2.448-0.41
	c-0.73-0.277-1.352-0.674-1.855-1.197c-0.524-0.549-0.868-1.184-1.037-1.906c-0.165-0.719-0.153-1.52,0.039-2.395
	c0.19-0.871,0.528-1.668,1.009-2.387c0.483-0.721,1.106-1.355,1.871-1.904c0.735-0.531,1.529-0.928,2.381-1.201
	C106.274,115.871,107.149,115.736,108.047,115.736L108.047,115.736z"/>
</svg>
