<?xml version="1.0" encoding="utf-8"?>
<!-- Generator: Adobe Illustrator 16.0.0, SVG Export Plug-In . SVG Version: 6.00 Build 0)  -->
<!DOCTYPE svg PUBLIC "-//W3C//DTD SVG 1.1//EN" "http://www.w3.org/Graphics/SVG/1.1/DTD/svg11.dtd">
<svg version="1.1" id="Capa_1" xmlns="http://www.w3.org/2000/svg" xmlns:xlink="http://www.w3.org/1999/xlink" x="0px" y="0px"
	 width="304px" height="218px" viewBox="340.5 217.5 304 218" enable-background="new 340.5 217.5 304 218" xml:space="preserve">
<g>
	<g>
		<path d="M581.561,381.435c-1.134,0-2.269-0.415-3.154-1.254l-53.064-49.782c-1.854-1.733-1.946-4.657-0.203-6.511
			c1.743-1.872,4.648-1.955,6.52-0.203l53.065,49.782c1.854,1.733,1.946,4.657,0.203,6.511
			C584.014,380.946,582.797,381.435,581.561,381.435z"/>
		<path d="M404.429,381.435c-1.227,0-2.453-0.489-3.366-1.457c-1.743-1.854-1.651-4.777,0.203-6.511l53.083-49.782
			c1.863-1.733,4.787-1.66,6.521,0.203c1.743,1.854,1.651,4.777-0.203,6.511l-53.083,49.782
			C406.698,381.02,405.564,381.435,404.429,381.435z"/>
	</g>
	<path d="M612.944,427.721H373.056c-12.709,0-23.056-10.338-23.056-23.056V247.454c0-12.717,10.347-23.056,23.056-23.056h239.888
		c12.709,0,23.056,10.339,23.056,23.056v157.211C636,417.383,625.653,427.721,612.944,427.721z M373.056,233.621
		c-7.627,0-13.834,6.207-13.834,13.833v157.211c0,7.627,6.207,13.834,13.834,13.834h239.888c7.627,0,13.834-6.207,13.834-13.834
		V247.454c0-7.627-6.207-13.833-13.834-13.833H373.056z"/>
	<path d="M493,349.231c-6.132,0-12.265-2.038-16.932-6.104L357.654,239.827c-1.918-1.669-2.121-4.583-0.452-6.511
		c1.688-1.918,4.593-2.093,6.511-0.442l118.414,103.29c5.893,5.137,15.853,5.137,21.737,0L622.13,233.04
		c1.909-1.669,4.814-1.485,6.511,0.442c1.67,1.928,1.476,4.833-0.442,6.511L509.932,343.116
		C505.257,347.193,499.133,349.231,493,349.231z"/>
</g>
</svg>
