<?xml version="1.0" encoding="utf-8"?>
<!-- Generator: Adobe Illustrator 16.0.0, SVG Export Plug-In . SVG Version: 6.00 Build 0)  -->
<!DOCTYPE svg PUBLIC "-//W3C//DTD SVG 1.1//EN" "http://www.w3.org/Graphics/SVG/1.1/DTD/svg11.dtd">
<svg version="1.1" id="Layer_1" xmlns="http://www.w3.org/2000/svg" xmlns:xlink="http://www.w3.org/1999/xlink" x="0px" y="0px"
	 width="1201.479px" height="150px" viewBox="0 0 1201.479 150" enable-background="new 0 0 1201.479 150" xml:space="preserve">
<rect x="-1.013" y="37.394" fill="#AD0909" width="41.234" height="95.385"/>
<polygon fill="#7F1313" points="40.233,37.438 15.363,69.247 15.363,150.836 40.405,92.469 "/>
<path fill="#990606" d="M1114.415,89.255c0.063,1.58-0.98,3.312-3.123,3.504c-2.629,0.238-5.094,1.241-7.604,2.003
	c0.254,1.147-0.095,2.424-1.378,3.268c-2.214,1.453-5.179,2.584-7.854,1.767v41.597L1201.479,150V70.5L1114.415,89.255z"/>
<path fill="#8E0404" d="M13.267,150.959c0,0,138.733-275.733,746.229,0"/>
<path fill="#AA0707" d="M498.24,153.5c0,0,351-234,703.239-3.5"/>
<polygon fill="#990606" points="15.553,70.492 15.543,140.938 78.699,105.742 "/>
<polygon fill="#7F1313" points="116.199,85.738 115.728,125.822 78.224,106.002 "/>
<polygon fill="#990606" points="78.047,146.521 78.224,106.002 115.728,125.822 "/>
<polygon fill="#870A0A" points="78.224,106.002 78.052,146.045 87.118,150.52 15.346,150.695 15.574,140.841 "/>
<polygon fill="#990606" points="116.199,85.738 152.599,105.661 115.728,125.822 "/>
<polygon fill="#990606" points="190.247,86.021 190.247,125.758 226.799,106.004 "/>
<polygon fill="#990606" points="153.085,146.201 190.247,125.758 189.638,150.91 161.935,150.895 "/>
<polygon fill="#870A0A" points="115.728,125.822 115.809,150.848 87.047,150.91 78.158,146.464 "/>
<polygon fill="#990606" points="115.728,125.822 153.085,146.201 153.066,150.895 115.809,150.848 "/>
<polygon fill="#7F1313" points="152.923,65.139 152.599,105.661 116.199,85.738 "/>
<polygon fill="#990606" points="190.247,86.021 152.599,105.661 152.923,65.139 "/>
<polygon fill="#7F1313" points="190.247,125.758 190.247,86.021 152.599,105.661 "/>
<polygon fill="#990606" points="153.085,146.201 152.599,105.661 190.247,125.758 "/>
<polygon fill="#7F1313" points="115.728,125.822 152.599,105.661 153.085,146.201 "/>
<polygon fill="#540A0A" points="153.066,150.895 161.935,150.895 153.085,146.201 "/>
<polygon fill="#721111" points="226.799,106.004 227.374,146.219 190.247,125.758 "/>
<polyline fill="#7F1313" points="190.245,126.063 189.576,150.852 219.69,150.895 227.313,146.16 190.185,125.7 "/>
<polygon fill="#990606" points="226.799,106.004 264.046,126.396 227.313,146.16 "/>
<polygon fill="#540A0A" points="236.068,150.895 227.313,146.16 227.579,150.984 "/>
<polygon fill="#990606" points="219.69,150.895 227.313,146.16 227.579,150.984 "/>
<polygon fill="#7F1313" points="264.043,126.424 266.166,150.895 235.987,150.895 227.313,146.16 "/>
<polyline fill="#721111" points="264.043,126.424 309.834,150.382 266.166,150.895 264.09,126.645 "/>
<polygon fill="#721111" points="1040.961,127.754 1040.844,151.204 1010.274,151.141 1003.854,148.063 "/>
<polygon fill="#721111" points="1077.65,147.857 1074.31,151.213 1040.844,151.204 1040.961,128.166 "/>
<polygon fill="#870A0A" points="1077.847,107.689 1077.927,147.998 1040.637,128.104 "/>
<polygon fill="#990606" points="1115.37,127.661 1077.927,147.998 1077.854,107.713 "/>
<polygon fill="#721111" points="1127.749,80.426 1127.749,134.646 1077.963,107.755 "/>
<polygon fill="#961515" points="1127.736,151.223 1127.736,134.578 1115.073,127.846 1077.927,147.998 1086.056,151.232 "/>
<polygon fill="#872A2A" points="1085.927,151.203 1077.6,147.848 1074.31,151.213 "/>
<polygon fill="#721717" points="337.706,150.887 337.706,134.32 367.583,150.887 "/>
<polygon fill="#990606" points="389.736,150.963 426.016,131.438 426.643,150.963 "/>
<polygon fill="#6B1B1B" points="436.813,150.846 475.101,129.663 514.161,150.895 "/>
<polygon fill="#870A0A" points="854.612,66.56 854.772,106.493 890.978,86.65 891.065,86.602 "/>
<polygon fill="#721111" points="854.933,147.482 854.772,106.493 890.904,127.139 "/>
<polyline fill="#990606" points="890.904,127.139 854.772,106.493 890.978,86.65 890.904,127.139 927.781,107.039 928.513,147.479 
	"/>
<polyline fill="#AF1B1B" points="890.97,86.578 927.781,107.039 890.919,127.105 "/>
<polygon fill="#990606" points="891.72,151.128 890.899,127.166 854.933,147.482 860.069,151.25 "/>
<polygon fill="#A02020" points="854.812,151.195 854.9,147.348 860.069,151.25 "/>
<polygon fill="#A02020" points="928.513,147.479 922.687,151.223 891.72,151.128 890.899,127.166 "/>
<polygon fill="#990606" points="935.65,151.207 928.513,147.479 922.615,151.223 "/>
<polygon fill="#A02020" points="1010.274,151.141 1003.285,147.958 997.519,151.145 "/>
<polygon fill="#990606" points="965.135,127.609 966.617,150.986 997.519,151.145 1003.285,147.958 "/>
<polygon fill="#891313" points="928.513,147.479 965.135,127.609 927.781,107.039 "/>
<polygon fill="#9B2626" points="935.641,150.908 928.503,147.18 965.124,127.622 966.61,150.689 "/>
<polygon fill="#A83838" points="854.906,117.529 817.496,138.021 840.588,151.242 854.971,151.213 "/>
<polygon fill="#990606" points="818.01,151.104 817.496,138.021 840.588,151.242 "/>
<polygon fill="#7C0D0D" points="793.886,151.146 817.49,138.05 818.01,151.104 "/>
<polygon fill="#7F1818" points="716.472,151.178 716.472,122.498 766.482,151.178 "/>
<rect x="0" y="131.9" fill="#AD0909" width="15.378" height="18.1"/>
</svg>
