<?xml version="1.0" encoding="utf-8"?>
<!-- Generator: Adobe Illustrator 16.0.0, SVG Export Plug-In . SVG Version: 6.00 Build 0)  -->
<!DOCTYPE svg PUBLIC "-//W3C//DTD SVG 1.1//EN" "http://www.w3.org/Graphics/SVG/1.1/DTD/svg11.dtd">
<svg version="1.1" id="Layer_1" xmlns="http://www.w3.org/2000/svg" xmlns:xlink="http://www.w3.org/1999/xlink" x="0px" y="0px"
	 width="1740px" height="500px" viewBox="0 0 1740 500" enable-background="new 0 0 1740 500" xml:space="preserve">
<polygon fill="#A00B0B" points="1322.097,500.71 1322.86,362.853 1560.578,501.092 "/>
<path fill="#AA0707" d="M0,500c0,0,698-343,1740,2"/>
<polygon fill="#960B0B" points="490.128,500.169 247.656,360.404 125.107,431.892 241.237,500.46 "/>
<polyline fill="#AA0707" points="261.662,500.169 37.281,368.574 36.405,500.169 "/>
<polygon fill="#960B0B" points="247.656,360.404 247.656,425.181 303.679,393.084 "/>
<polygon fill="#960B0B" points="191.342,393.376 190.759,459.027 247.656,425.181 "/>
<polygon fill="#960B0B" points="303.971,458.151 248.24,492.29 247.656,425.181 "/>
<polygon fill="#960B0B" points="360.869,426.931 362.036,493.166 304.34,458.224 "/>
<polygon fill="#A80F0F" points="303.679,393.084 303.971,458.151 247.656,425.181 "/>
<polygon fill="#B52323" points="247.656,360.404 191.342,393.376 247.656,425.181 "/>
<line fill="#B52323" x1="304.263" y1="459.61" x2="417.475" y2="459.61"/>
<polygon fill="#770B0B" points="303.869,500 303.969,458.188 248.297,492.313 261.583,500.082 "/>
<polygon fill="#770B0B" points="191.342,393.376 134.785,425.913 190.713,458.557 "/>
<polygon fill="#990E0E" points="303.679,393.084 303.969,458.188 360.869,426.931 "/>
<polygon fill="#B22020" points="247.656,425.181 248.297,492.313 190.759,459.027 "/>
<polygon fill="#770B0B" points="360.869,426.931 362.036,493.166 418.322,460.761 "/>
<polygon fill="#770B0B" points="304.183,458.271 303.869,500 349.609,500.733 361.97,493.174 "/>
<polygon fill="#770B0B" points="418.652,462.082 418.652,500 462.589,500.733 474.481,492.475 "/>
<polygon fill="#490808" points="362.036,493.166 361.832,500.733 375.707,501.394 "/>
<polyline fill="#751212" points="418.652,462.082 418.652,500 375.707,501.394 362.036,493.166 418.322,460.761 "/>
<polygon fill="#560E0E" points="361.953,493.243 361.831,500.001 350.69,499.966 "/>
<polygon fill="#930F0F" points="530.516,500.173 530.516,471.853 575.756,499.989 "/>
<polygon fill="#770B0B" points="609.41,500.357 666.603,467.623 666.971,500.173 "/>
<polygon fill="#961111" points="682.235,499.621 741.451,464.681 801.586,500 "/>
<polygon fill="#930F0F" points="1110.697,500.373 1110.697,453.688 1188.506,500.535 "/>
<polygon fill="#930F0F" points="1229.031,499.887 1264.531,479.138 1265.18,500.211 "/>
<polygon fill="#720D0D" points="1301.49,500.211 1264.531,479.138 1265.18,500.211 "/>
<polygon fill="#841515" points="1322.244,444.935 1322.568,500.049 1300.685,500.373 1264.531,479.138 "/>
<polyline fill="#B70D0D" points="1740,385.383 1550.058,494.408 1561.514,501.664 1740.996,500.137 "/>
<polygon fill="#A00B0B" points="1322.287,428.153 1378.805,396.076 1378.041,460.804 "/>
<polygon fill="#720E0E" points="1434.94,428.727 1434.94,493.836 1378.041,460.804 "/>
<polygon fill="#721919" points="1378.041,460.804 1378.996,499.755 1331.452,500.71 1322.669,494.218 "/>
<polygon fill="#840C0C" points="1492.031,462.331 1494.322,500.328 1446.397,500.52 1434.94,493.836 "/>
<polygon fill="#840C0C" points="1378.041,460.804 1377.851,499.755 1426.539,500.52 1434.94,493.836 "/>
<polygon fill="#990B0B" points="1550.058,494.408 1541.866,500.71 1491.076,500.328 1491.076,462.331 "/>
<polygon fill="#9B1616" points="1550.058,494.408 1559.241,501.092 1541.293,501.474 "/>
<polygon fill="#630606" points="1434.94,493.836 1435.031,500 1445.406,500 "/>
<polygon fill="#A80C0C" points="1427.219,499.969 1434.906,493.891 1434.875,499.984 "/>
<polygon fill="#A80C0C" points="474.402,492.758 474.329,500.021 463.692,499.947 "/>
<polygon fill="#7C0A0A" points="487.239,500.021 474.402,492.758 474.329,500.021 "/>
</svg>
