<?xml version="1.0" encoding="utf-8"?>
<!-- Generator: Adobe Illustrator 16.0.0, SVG Export Plug-In . SVG Version: 6.00 Build 0)  -->
<!DOCTYPE svg PUBLIC "-//W3C//DTD SVG 1.1//EN" "http://www.w3.org/Graphics/SVG/1.1/DTD/svg11.dtd">
<svg version="1.1" id="Layer_1" xmlns="http://www.w3.org/2000/svg" xmlns:xlink="http://www.w3.org/1999/xlink" x="0px" y="0px"
	 width="589px" height="80px" viewBox="226.24 -28.5 589 80" enable-background="new 226.24 -28.5 589 80" xml:space="preserve">
<rect x="226.396" y="-17.418" fill="#AD0909" width="19.523" height="58.365"/>
<polygon fill="#7F1313" points="245.925,-17.392 233.733,2.072 233.733,51.997 246.009,16.281 "/>
<path fill="#990606" d="M772.512,14.315c0.032,0.968-0.48,2.026-1.53,2.145c-1.289,0.146-2.496,0.759-3.728,1.226
	c0.124,0.701-0.047,1.482-0.675,1.999c-1.085,0.889-2.539,1.581-3.852,1.08v25.452l52.42,4.975V8.518L772.512,14.315z"/>
<path fill="#8E0404" d="M232.705,52.072c0,0,68.01-168.72,365.818,0"/>
<path fill="#AA0707" d="M470.308,52.033c0,0,227.433-134.601,344.738-0.57"/>
<polygon fill="#990606" points="233.826,2.835 233.822,45.939 264.782,24.404 "/>
<polygon fill="#7F1313" points="283.165,12.164 282.934,36.69 264.549,24.563 "/>
<polygon fill="#990606" points="264.462,49.357 264.549,24.563 282.934,36.69 "/>
<polygon fill="#870A0A" points="264.549,24.563 264.465,49.065 268.909,51.803 233.725,51.91 233.837,45.881 "/>
<polygon fill="#990606" points="283.165,12.164 301.009,24.354 282.934,36.69 "/>
<polygon fill="#990606" points="319.465,12.337 319.465,36.651 337.384,24.564 "/>
<polygon fill="#990606" points="301.247,49.16 319.465,36.651 319.166,52.042 305.586,52.033 "/>
<polygon fill="#870A0A" points="282.934,36.69 282.973,52.004 268.874,52.042 264.517,49.321 "/>
<polygon fill="#990606" points="282.934,36.69 301.247,49.16 301.238,52.033 282.973,52.004 "/>
<polygon fill="#7F1313" points="301.168,-0.44 301.009,24.354 283.165,12.164 "/>
<polygon fill="#990606" points="319.465,12.337 301.009,24.354 301.168,-0.44 "/>
<polygon fill="#7F1313" points="319.465,36.651 319.465,12.337 301.009,24.354 "/>
<polygon fill="#990606" points="301.247,49.16 301.009,24.354 319.465,36.651 "/>
<polygon fill="#7F1313" points="282.934,36.69 301.009,24.354 301.247,49.16 "/>
<polygon fill="#540A0A" points="301.238,52.033 305.586,52.033 301.247,49.16 "/>
<polygon fill="#721111" points="337.384,24.564 337.665,49.171 319.465,36.651 "/>
<polyline fill="#7F1313" points="319.464,36.838 319.136,52.007 333.898,52.033 337.635,49.136 319.434,36.616 "/>
<polygon fill="#990606" points="337.384,24.564 355.643,37.042 337.635,49.136 "/>
<polygon fill="#540A0A" points="341.927,52.033 337.635,49.136 337.766,52.087 "/>
<polygon fill="#990606" points="333.898,52.033 337.635,49.136 337.766,52.087 "/>
<polygon fill="#7F1313" points="355.641,37.059 356.682,52.033 341.887,52.033 337.635,49.136 "/>
<polyline fill="#721111" points="355.641,37.059 378.089,51.72 356.682,52.033 355.665,37.194 "/>
<polygon fill="#721111" points="736.503,37.873 736.447,52.223 721.46,52.184 718.313,50.3 "/>
<polygon fill="#721111" points="754.49,50.174 752.852,52.228 736.447,52.223 736.503,38.125 "/>
<polygon fill="#870A0A" points="754.586,25.596 754.624,50.261 736.344,38.087 "/>
<polygon fill="#990606" points="772.982,37.816 754.624,50.261 754.589,25.61 "/>
<polygon fill="#721111" points="779.049,8.913 779.049,42.091 754.642,25.635 "/>
<polygon fill="#961515" points="779.042,52.233 779.042,42.048 772.835,37.929 754.624,50.261 758.611,52.239 "/>
<polygon fill="#872A2A" points="758.547,52.222 754.465,50.168 752.852,52.228 "/>
<polygon fill="#721717" points="391.752,52.028 391.752,41.891 406.399,52.028 "/>
<polygon fill="#990606" points="417.259,52.074 435.044,40.126 435.351,52.074 "/>
<polygon fill="#6B1B1B" points="440.337,52.002 459.107,39.041 478.256,52.033 "/>
<polygon fill="#870A0A" points="645.152,0.429 645.23,24.863 662.98,12.722 663.021,12.692 "/>
<polygon fill="#721111" points="645.309,49.944 645.23,24.863 662.942,37.497 "/>
<polyline fill="#990606" points="662.942,37.497 645.23,24.863 662.98,12.722 662.942,37.497 681.02,25.197 681.379,49.942 "/>
<polyline fill="#AF1B1B" points="662.974,12.678 681.02,25.197 662.95,37.477 "/>
<polygon fill="#990606" points="663.342,52.175 662.939,37.513 645.309,49.944 647.826,52.25 "/>
<polygon fill="#A02020" points="645.249,52.217 645.292,49.862 647.826,52.25 "/>
<polygon fill="#A02020" points="681.379,49.942 678.523,52.233 663.342,52.175 662.939,37.513 "/>
<polygon fill="#990606" points="684.877,52.224 681.379,49.942 678.488,52.233 "/>
<polygon fill="#A02020" points="721.46,52.184 718.034,50.235 715.207,52.186 "/>
<polygon fill="#990606" points="699.333,37.784 700.058,52.089 715.207,52.186 718.034,50.235 "/>
<polygon fill="#891313" points="681.379,49.942 699.333,37.784 681.02,25.197 "/>
<polygon fill="#9B2626" points="684.872,52.041 681.374,49.76 699.327,37.792 700.055,51.907 "/>
<polygon fill="#A83838" points="645.295,31.616 626.956,44.156 638.277,52.245 645.327,52.228 "/>
<polygon fill="#990606" points="627.208,52.16 626.956,44.156 638.277,52.245 "/>
<polygon fill="#7C0D0D" points="615.382,52.187 626.953,44.173 627.208,52.16 "/>
<polygon fill="#7F1818" points="577.431,52.206 577.431,34.656 601.948,52.206 "/>
</svg>
